<svg id="Capa_1" data-name="Capa 1" xmlns="http://www.w3.org/2000/svg" viewBox="0 0 44.3 24.24"><defs><style>.cls-1{fill:#11808b;}</style></defs><path class="cls-1" d="M24.92,11.11c-3.56,1.57-7.18,2.93-10.77,4.4l-10.88,4-.08,0h0l0,0a.33.33,0,0,0,.11-.08.38.38,0,0,0,.11-.22A.36.36,0,0,0,3.41,19a.43.43,0,0,0-.11-.12.11.11,0,0,1,0,0h0l.09,0,2.76.88,5.53,1.75,11,3.65,1.37.48.68.24L25,26l.08,0h0L25,26a.65.65,0,0,0-.24,0h0l.09,0,.17-.05.69-.22L27,25.28c1.84-.59,3.67-1.2,5.52-1.77,3.7-1.12,7.38-2.31,11.11-3.34l1.4-.4.08,0s.07,0,0,0a.49.49,0,0,0-.18.11.75.75,0,0,0-.25.4A.71.71,0,0,0,45,21c.47.19,0,0-.19,0l-.68-.15c-.46-.1-.93-.18-1.4-.26-1.86-.34-3.77-.57-5.67-.79a48.3,48.3,0,0,0-11.46-.3l-.05-.19a29.5,29.5,0,0,1,5.77-.66c1.94,0,3.87,0,5.81.11s3.86.28,5.78.54l1.44.2.71.13a2.2,2.2,0,0,1,.76.2.75.75,0,0,1,.28.8.83.83,0,0,1-.62.55l-1.37.46-11,3.66-5.5,1.83-1.37.46-.69.22a1.74,1.74,0,0,1-.79.15c-1-.27-1.86-.61-2.79-.91L11,23.29,5.52,21.41l-2.74-.94a1.24,1.24,0,0,1,0-2.4l22.07-7.15Z" transform="translate(-1.85 -10.92)"/><path class="cls-1" d="M10.27,26.54c.1.4.21.79.28,1.19a4.86,4.86,0,0,0,.23,1,.65.65,0,0,0,.52.28l1.15.17a40.71,40.71,0,0,1,4.73,1,31.27,31.27,0,0,1,4.62,1.68A22.22,22.22,0,0,1,24,33.12c.33.23.85.6.77.53a.49.49,0,0,0,.24,0h.08l.12-.08.52-.32c.35-.21.71-.42,1.08-.62a20.88,20.88,0,0,1,2.23-1.09,25.61,25.61,0,0,1,4.71-1.45,22.05,22.05,0,0,1,2.41-.41c.4-.06.81-.08,1.21-.13l.48-.05a.93.93,0,0,0,.33-.12.77.77,0,0,0,.39-.55l.13-1.19c.08-.79.19-1.58.31-2.37h.15v3.56a1.49,1.49,0,0,1-.53,1.11,2.2,2.2,0,0,1-1.13.44c-.39.08-.78.14-1.16.23-.78.17-1.54.35-2.3.57a30.24,30.24,0,0,0-4.44,1.63q-1.07.49-2.1,1.08c-.34.2-.68.4-1,.61a5.64,5.64,0,0,1-1.06.6A1.82,1.82,0,0,1,24.21,35a8.07,8.07,0,0,1-1-.68,17.93,17.93,0,0,0-2-1.17,34.14,34.14,0,0,0-4.38-1.8c-1.49-.51-3-.94-4.54-1.33l-1.16-.28a1.4,1.4,0,0,1-.91-.82,4.55,4.55,0,0,1-.06-1.21V26.54Z" transform="translate(-1.85 -10.92)"/></svg>